<svg width="22" height="17" viewBox="0 0 22 17" fill="none" xmlns="http://www.w3.org/2000/svg">
<path d="M10.9862 7.59716L18.4925 0.374416C19.0113 -0.124804 19.8502 -0.124804 20.3635 0.374416L21.6109 1.57467C22.1297 2.07388 22.1297 2.88113 21.6109 3.37504L16.2903 8.49469L21.6109 13.6143C22.1297 14.1136 22.1297 14.9208 21.6109 15.4147L20.369 16.6256C19.8502 17.1248 19.0113 17.1248 18.498 16.6256L10.9917 9.40284C10.4674 8.90362 10.4674 8.09638 10.9862 7.59716ZM0.389112 9.40284L7.89538 16.6256C8.4142 17.1248 9.25314 17.1248 9.76643 16.6256L11.0138 15.4253C11.5326 14.9261 11.5326 14.1189 11.0138 13.625L5.69317 8.50531L11.0138 3.38566C11.5326 2.88644 11.5326 2.0792 11.0138 1.58529L9.76643 0.385038C9.24762 -0.114182 8.40868 -0.114182 7.89538 0.385038L0.389112 7.60778C-0.129704 8.09638 -0.129704 8.90362 0.389112 9.40284Z" fill="white" fill-opacity="0.46"/>
</svg>
